<svg xmlns="http://www.w3.org/2000/svg" xmlns:xlink="http://www.w3.org/1999/xlink" width="1920" zoomAndPan="magnify" viewBox="0 0 1440 141.000003" height="188" preserveAspectRatio="xMidYMid meet" version="1.0"><defs><clipPath id="a8bd26f0d1"><path d="M 5.140625 0 L 600.773438 0 L 600.773438 140.007812 L 5.140625 140.007812 Z M 5.140625 0 " clip-rule="nonzero"/></clipPath><clipPath id="d9a58d02dc"><path d="M 5.140625 25 L 600 25 L 600 140.007812 L 5.140625 140.007812 Z M 5.140625 25 " clip-rule="nonzero"/></clipPath><clipPath id="8196abfe47"><path d="M 597.851562 0 L 1193.484375 0 L 1193.484375 140.007812 L 597.851562 140.007812 Z M 597.851562 0 " clip-rule="nonzero"/></clipPath><clipPath id="1c88502a2e"><path d="M 598.550781 25 L 1193.484375 25 L 1193.484375 140.007812 L 598.550781 140.007812 Z M 598.550781 25 " clip-rule="nonzero"/></clipPath><clipPath id="3c4e56a200"><path d="M 1183.527344 0 L 1434.929688 0 L 1434.929688 140.007812 L 1183.527344 140.007812 Z M 1183.527344 0 " clip-rule="nonzero"/></clipPath><clipPath id="0036c52242"><path d="M 1183.527344 25 L 1434.929688 25 L 1434.929688 140.007812 L 1183.527344 140.007812 Z M 1183.527344 25 " clip-rule="nonzero"/></clipPath></defs><g clip-path="url(#a8bd26f0d1)"><path fill="#ffffff" d="M 600.773438 225.660156 L 5.957031 225.660156 L 5.472656 19.53125 C 10.863281 12.929688 3.828125 12.722656 5.472656 14.15625 C 4.304688 11.203125 9.007812 13.992188 13.597656 14.566406 C 14.21875 21.714844 36.007812 11.324219 34.109375 11.820312 C 34.886719 11.929688 38.628906 12.960938 54.496094 9.390625 C 59.996094 -3.46875 68.898438 -2.171875 74.828125 7.527344 C 78.453125 6.394531 93.6875 -0.277344 95.136719 6.332031 C 107.828125 2.832031 116.472656 4.378906 115.445312 5.9375 C 122.5 9.117188 135.117188 17.082031 139.890625 6.839844 C 148.9375 5.832031 155.230469 -0.59375 158.335938 8.15625 C 161.675781 7.574219 171.472656 16.011719 174.125 11.703125 C 192.277344 15.152344 188.8125 12.957031 194.867188 20.097656 C 198.136719 29.980469 211.230469 30.105469 215.632812 28.863281 C 226.242188 42.234375 236.226562 27.394531 237.347656 35.429688 C 246.898438 42.371094 249.820312 34.042969 260.976562 37.195312 C 270.425781 32.585938 279.980469 35.136719 283.402344 34.273438 C 288.71875 30.507812 290.402344 34.015625 305.296875 29.917969 C 314.800781 28.019531 318.554688 30.980469 326.523438 23.058594 C 333.316406 19.214844 340.675781 20.761719 347.90625 17.566406 C 358.761719 18.3125 367.292969 8.488281 369.492188 13.351562 C 385.429688 18.960938 389.339844 17.078125 391.28125 10.292969 C 409.519531 10.234375 415.371094 0.839844 413.25 8.292969 C 423.136719 3.292969 431.054688 11.214844 435.394531 7.273438 C 445.667969 5.175781 459.179688 13.429688 457.671875 7.195312 C 472.234375 0.175781 474.429688 5.507812 480.382812 7.765625 C 485.824219 4.546875 493.4375 7.960938 503.523438 9.15625 C 508.84375 6.234375 514.738281 5.683594 526.289062 10.980469 C 532.953125 10.566406 542.585938 13.488281 552.191406 13.664062 C 562.023438 16.273438 570.019531 12.605469 578.9375 11.683594 C 578.066406 12.507812 592.265625 4.507812 600.289062 2.820312 L 600.773438 225.660156 " fill-opacity="1" fill-rule="nonzero"/></g><g clip-path="url(#d9a58d02dc)"><path fill="#e6e6e6" d="M 599.957031 225.640625 L 5.140625 225.640625 L 5.472656 30.546875 C 5.472656 30.546875 9.179688 29.703125 13.191406 30.820312 C 18.070312 26.898438 42.261719 30.410156 39.453125 27.367188 C 40.957031 25.171875 44.074219 25.644531 46.679688 31.195312 C 52.121094 34.015625 54.0625 31.898438 64.28125 25.09375 C 74.78125 31.09375 76.875 29.683594 82.597656 26.546875 C 81.804688 39.976562 94.195312 38.800781 98.332031 31.664062 C 110.109375 38.78125 106.8125 38.191406 110.976562 39.113281 C 118.898438 45.78125 113.507812 46.035156 122.703125 47.328125 C 124.414062 54.859375 131.082031 59.503906 134.25 56.46875 C 136.828125 66.015625 142.089844 61.585938 145.976562 64.644531 C 152.820312 61.761719 153.40625 79.09375 159.230469 71.644531 C 181.125 70.234375 175.070312 80.328125 181.046875 73.191406 C 193.921875 73.46875 200.359375 77.09375 203.476562 66.367188 C 212.824219 68.625 214.257812 59.152344 220.386719 62.527344 C 234.003906 56.5625 235.355469 64.191406 245.90625 56.859375 C 265.578125 55.347656 273.316406 52.820312 271.628906 52.035156 C 294.363281 57.507812 289.894531 60.191406 294.726562 51.527344 C 307.726562 56.957031 318.738281 57.332031 317.96875 48.015625 C 323.359375 41.996094 325.378906 42.367188 341.289062 42.898438 C 351.664062 43.976562 361.421875 38.328125 364.152344 37.644531 C 363.953125 37.664062 363.820312 37.664062 363.746094 37.664062 C 363.847656 37.644531 364.105469 37.625 364.5625 37.585938 C 364.460938 37.585938 364.335938 37.605469 364.207031 37.644531 C 367.78125 37.464844 389.625 35.800781 387.707031 33.445312 C 403.597656 31.152344 403.878906 41.878906 410.648438 31.917969 C 413.660156 25.585938 420.097656 27.742188 433.304688 34.371094 C 449.605469 30.625 452.03125 40.664062 455.558594 42.230469 C 457.136719 42.132812 460.230469 38.859375 463.214844 36.347656 C 471.441406 37.625 480.898438 35.644531 479.339844 43.859375 C 481.894531 40.585938 487.15625 50.152344 494.511719 52.328125 C 497.167969 52.542969 515.5625 57.171875 510.628906 58.3125 C 511.78125 61.722656 521.921875 55.839844 529.636719 58.347656 C 528.945312 48.015625 551.605469 69.054688 550.046875 55.449219 C 562.105469 57.367188 562.359375 52.308594 566.980469 52.09375 C 572.679688 47.820312 578.582031 41.152344 580.601562 48.386719 C 589.363281 47.78125 594.289062 46.527344 599.476562 45.054688 L 599.957031 225.640625 " fill-opacity="1" fill-rule="nonzero"/></g><g clip-path="url(#8196abfe47)"><path fill="#ffffff" d="M 597.851562 225.660156 L 1192.667969 225.660156 L 1193.152344 19.53125 C 1187.765625 12.929688 1194.796875 12.722656 1193.152344 14.15625 C 1194.320312 11.203125 1189.621094 13.992188 1185.027344 14.566406 C 1184.40625 21.714844 1162.617188 11.324219 1164.515625 11.820312 C 1163.738281 11.929688 1159.996094 12.960938 1144.128906 9.390625 C 1138.628906 -3.46875 1129.726562 -2.171875 1123.796875 7.527344 C 1120.171875 6.394531 1104.9375 -0.277344 1103.488281 6.332031 C 1090.796875 2.832031 1082.152344 4.378906 1083.179688 5.9375 C 1076.125 9.117188 1063.507812 17.082031 1058.734375 6.839844 C 1049.6875 5.832031 1043.394531 -0.59375 1040.289062 8.15625 C 1036.949219 7.574219 1027.152344 16.011719 1024.503906 11.703125 C 1006.347656 15.152344 1009.8125 12.957031 1003.761719 20.097656 C 1000.488281 29.980469 987.394531 30.105469 982.992188 28.863281 C 972.382812 42.234375 962.398438 27.394531 961.277344 35.429688 C 951.726562 42.371094 948.804688 34.042969 937.648438 37.195312 C 928.199219 32.585938 918.644531 35.136719 915.222656 34.273438 C 909.90625 30.507812 908.222656 34.015625 893.328125 29.917969 C 883.824219 28.019531 880.070312 30.980469 872.101562 23.058594 C 865.308594 19.214844 857.949219 20.761719 850.71875 17.566406 C 839.863281 18.3125 831.332031 8.488281 829.132812 13.351562 C 813.195312 18.960938 809.285156 17.078125 807.347656 10.292969 C 789.105469 10.234375 783.253906 0.839844 785.378906 8.292969 C 775.488281 3.292969 767.570312 11.214844 763.230469 7.273438 C 752.957031 5.175781 739.449219 13.429688 740.953125 7.195312 C 726.390625 0.175781 724.195312 5.507812 718.242188 7.765625 C 712.800781 4.546875 705.1875 7.960938 695.101562 9.15625 C 689.785156 6.234375 683.886719 5.683594 672.339844 10.980469 C 665.671875 10.566406 656.042969 13.488281 646.433594 13.664062 C 636.601562 16.273438 628.605469 12.605469 619.6875 11.683594 C 620.558594 12.507812 606.359375 4.507812 598.339844 2.820312 L 597.851562 225.660156 " fill-opacity="1" fill-rule="nonzero"/></g><g clip-path="url(#1c88502a2e)"><path fill="#e6e6e6" d="M 598.667969 225.640625 L 1193.484375 225.640625 L 1193.152344 30.546875 C 1193.152344 30.546875 1189.445312 29.703125 1185.433594 30.820312 C 1180.554688 26.898438 1156.363281 30.410156 1159.175781 27.367188 C 1157.667969 25.171875 1154.550781 25.644531 1151.945312 31.195312 C 1146.503906 34.015625 1144.5625 31.898438 1134.34375 25.09375 C 1123.84375 31.09375 1121.75 29.683594 1116.027344 26.546875 C 1116.820312 39.976562 1104.429688 38.800781 1100.292969 31.664062 C 1088.515625 38.78125 1091.8125 38.191406 1087.648438 39.113281 C 1079.726562 45.78125 1085.117188 46.035156 1075.921875 47.328125 C 1074.210938 54.859375 1067.542969 59.503906 1064.375 56.46875 C 1061.796875 66.015625 1056.535156 61.585938 1052.652344 64.644531 C 1045.804688 61.761719 1045.21875 79.09375 1039.394531 71.644531 C 1017.5 70.234375 1023.554688 80.328125 1017.578125 73.191406 C 1004.703125 73.46875 998.265625 77.09375 995.148438 66.367188 C 985.800781 68.625 984.367188 59.152344 978.238281 62.527344 C 964.621094 56.5625 963.269531 64.191406 952.71875 56.859375 C 933.046875 55.347656 925.308594 52.820312 926.996094 52.035156 C 904.261719 57.507812 908.730469 60.191406 903.902344 51.527344 C 890.898438 56.957031 879.886719 57.332031 880.65625 48.015625 C 875.265625 41.996094 873.246094 42.367188 857.335938 42.898438 C 846.960938 43.976562 837.203125 38.328125 834.472656 37.644531 C 834.675781 37.664062 834.804688 37.664062 834.878906 37.664062 C 834.777344 37.644531 834.519531 37.625 834.0625 37.585938 C 834.164062 37.585938 834.289062 37.605469 834.421875 37.644531 C 830.84375 37.464844 809.003906 35.800781 810.917969 33.445312 C 795.027344 31.152344 794.746094 41.878906 787.976562 31.917969 C 784.964844 25.585938 778.527344 27.742188 765.320312 34.371094 C 749.019531 30.625 746.59375 40.664062 743.070312 42.230469 C 741.488281 42.132812 738.394531 38.859375 735.410156 36.347656 C 727.183594 37.625 717.730469 35.644531 719.285156 43.859375 C 716.730469 40.585938 711.46875 50.152344 704.113281 52.328125 C 701.457031 52.542969 683.066406 57.171875 687.996094 58.3125 C 686.84375 61.722656 676.703125 55.839844 668.992188 58.347656 C 669.679688 48.015625 647.023438 69.054688 648.578125 55.449219 C 636.519531 57.367188 636.269531 52.308594 631.644531 52.09375 C 625.945312 47.820312 620.042969 41.152344 618.023438 48.386719 C 609.265625 47.78125 604.335938 46.527344 599.148438 45.054688 L 598.667969 225.640625 " fill-opacity="1" fill-rule="nonzero"/></g><g clip-path="url(#3c4e56a200)"><path fill="#ffffff" d="M 1779.160156 225.660156 L 1184.34375 225.660156 L 1183.859375 19.53125 C 1189.25 12.929688 1182.214844 12.722656 1183.859375 14.15625 C 1182.691406 11.203125 1187.394531 13.992188 1191.984375 14.566406 C 1192.605469 21.714844 1214.394531 11.324219 1212.496094 11.820312 C 1213.273438 11.929688 1217.015625 12.960938 1232.882812 9.390625 C 1238.382812 -3.46875 1247.285156 -2.171875 1253.214844 7.527344 C 1256.839844 6.394531 1272.074219 -0.277344 1273.523438 6.332031 C 1286.214844 2.832031 1294.859375 4.378906 1293.832031 5.9375 C 1300.886719 9.117188 1313.503906 17.082031 1318.277344 6.839844 C 1327.324219 5.832031 1333.617188 -0.59375 1336.722656 8.15625 C 1340.0625 7.574219 1349.859375 16.011719 1352.507812 11.703125 C 1370.664062 15.152344 1367.199219 12.957031 1373.253906 20.097656 C 1376.523438 29.980469 1389.617188 30.105469 1394.019531 28.863281 C 1404.628906 42.234375 1414.613281 27.394531 1415.734375 35.429688 C 1425.285156 42.371094 1428.207031 34.042969 1439.363281 37.195312 C 1448.8125 32.585938 1458.367188 35.136719 1461.789062 34.273438 C 1467.105469 30.507812 1468.789062 34.015625 1483.683594 29.917969 C 1493.1875 28.019531 1496.941406 30.980469 1504.910156 23.058594 C 1511.703125 19.214844 1519.0625 20.761719 1526.292969 17.566406 C 1537.148438 18.3125 1545.679688 8.488281 1547.878906 13.351562 C 1563.816406 18.960938 1567.726562 17.078125 1569.664062 10.292969 C 1587.90625 10.234375 1593.757812 0.839844 1591.632812 8.292969 C 1601.523438 3.292969 1609.441406 11.214844 1613.78125 7.273438 C 1624.054688 5.175781 1637.5625 13.429688 1636.058594 7.195312 C 1650.621094 0.175781 1652.816406 5.507812 1658.769531 7.765625 C 1664.210938 4.546875 1671.824219 7.960938 1681.910156 9.15625 C 1687.226562 6.234375 1693.125 5.683594 1704.671875 10.980469 C 1711.339844 10.566406 1720.96875 13.488281 1730.578125 13.664062 C 1740.410156 16.273438 1748.40625 12.605469 1757.324219 11.683594 C 1756.453125 12.507812 1770.652344 4.507812 1778.671875 2.820312 L 1779.160156 225.660156 " fill-opacity="1" fill-rule="nonzero"/></g><g clip-path="url(#0036c52242)"><path fill="#e6e6e6" d="M 1778.34375 225.640625 L 1183.527344 225.640625 L 1183.859375 30.546875 C 1183.859375 30.546875 1187.566406 29.703125 1191.578125 30.820312 C 1196.457031 26.898438 1220.648438 30.410156 1217.835938 27.367188 C 1219.34375 25.171875 1222.460938 25.644531 1225.066406 31.195312 C 1230.507812 34.015625 1232.449219 31.898438 1242.667969 25.09375 C 1253.167969 31.09375 1255.261719 29.683594 1260.984375 26.546875 C 1260.191406 39.976562 1272.582031 38.800781 1276.71875 31.664062 C 1288.496094 38.78125 1285.199219 38.191406 1289.363281 39.113281 C 1297.285156 45.78125 1291.894531 46.035156 1301.089844 47.328125 C 1302.800781 54.859375 1309.46875 59.503906 1312.636719 56.46875 C 1315.214844 66.015625 1320.476562 61.585938 1324.359375 64.644531 C 1331.207031 61.761719 1331.792969 79.09375 1337.617188 71.644531 C 1359.511719 70.234375 1353.457031 80.328125 1359.433594 73.191406 C 1372.308594 73.46875 1378.746094 77.09375 1381.863281 66.367188 C 1391.210938 68.625 1392.644531 59.152344 1398.773438 62.527344 C 1412.390625 56.5625 1413.742188 64.191406 1424.292969 56.859375 C 1443.964844 55.347656 1451.703125 52.820312 1450.015625 52.035156 C 1472.75 57.507812 1468.28125 60.191406 1473.109375 51.527344 C 1486.113281 56.957031 1497.125 57.332031 1496.355469 48.015625 C 1501.746094 41.996094 1503.765625 42.367188 1519.675781 42.898438 C 1530.050781 43.976562 1539.808594 38.328125 1542.539062 37.644531 C 1542.339844 37.664062 1542.207031 37.664062 1542.132812 37.664062 C 1542.234375 37.644531 1542.492188 37.625 1542.949219 37.585938 C 1542.847656 37.585938 1542.722656 37.605469 1542.59375 37.644531 C 1546.167969 37.464844 1568.007812 35.800781 1566.09375 33.445312 C 1581.984375 31.152344 1582.265625 41.878906 1589.035156 31.917969 C 1592.046875 25.585938 1598.484375 27.742188 1611.691406 34.371094 C 1627.992188 30.625 1630.417969 40.664062 1633.941406 42.230469 C 1635.523438 42.132812 1638.617188 38.859375 1641.601562 36.347656 C 1649.828125 37.625 1659.28125 35.644531 1657.726562 43.859375 C 1660.28125 40.585938 1665.542969 50.152344 1672.898438 52.328125 C 1675.554688 52.542969 1693.945312 57.171875 1689.015625 58.3125 C 1690.167969 61.722656 1700.308594 55.839844 1708.019531 58.347656 C 1707.332031 48.015625 1729.988281 69.054688 1728.433594 55.449219 C 1740.492188 57.367188 1740.742188 52.308594 1745.367188 52.09375 C 1751.066406 47.820312 1756.96875 41.152344 1758.988281 48.386719 C 1767.75 47.78125 1772.675781 46.527344 1777.863281 45.054688 L 1778.34375 225.640625 " fill-opacity="1" fill-rule="nonzero"/></g></svg>