<svg xmlns="http://www.w3.org/2000/svg" xmlns:xlink="http://www.w3.org/1999/xlink" width="1920" zoomAndPan="magnify" viewBox="0 0 1440 141.000003" height="188" preserveAspectRatio="xMidYMid meet" version="1.0"><defs><clipPath id="83632c4dc9"><path d="M 5.070312 48 L 1434.929688 48 L 1434.929688 140.007812 L 5.070312 140.007812 Z M 5.070312 48 " clip-rule="nonzero"/></clipPath></defs><g clip-path="url(#83632c4dc9)"><path fill="#ffffff" d="M 5.070312 354.648438 C 6.078125 354.972656 7.140625 355.335938 8.390625 355.789062 C 29.117188 349.925781 33.742188 352.855469 40.621094 355.628906 C 53.421875 355.417969 52.101562 365.015625 66.160156 358.238281 C 89.84375 349.261719 73.917969 345.089844 86.792969 353.976562 C 102.976562 344.09375 110.765625 358.097656 117.554688 350.582031 C 119.496094 358.3125 133.703125 350.109375 141.128906 343.761719 C 154.566406 351.367188 162.761719 332.25 171.234375 338.859375 C 181.878906 345.089844 192.8125 328.929688 203.011719 339.210938 C 213.261719 343.761719 219.464844 341.605469 229.730469 341.605469 C 238.75 342.03125 247.738281 340.679688 256.757812 347.457031 C 265.800781 348.503906 274.820312 351.746094 283.835938 353.234375 C 294.511719 363.285156 305.515625 367.5 316.828125 356.796875 C 323.21875 352.339844 328.140625 362.972656 335.546875 349.019531 C 340.800781 332.839844 346.101562 351.175781 351.382812 348.199219 C 360.507812 348.855469 369.664062 346.347656 378.878906 344.378906 C 392.269531 339.191406 401.953125 341.652344 415.058594 340.402344 C 431.132812 338.316406 441.972656 339.480469 458.445312 336.707031 C 477.515625 335.355469 486.652344 340.589844 501.5625 348.269531 C 508.851562 352.894531 517.5625 353.125 527.144531 356.230469 C 528.707031 335.308594 526.949219 360.300781 530.789062 335.996094 C 539.6875 345.425781 548.945312 336.445312 558.21875 337.296875 C 567.46875 343.90625 576.792969 340.996094 585.808594 336.898438 C 588.675781 346.921875 596.90625 328.988281 600.292969 337.160156 C 608.839844 332.75 616.691406 348.53125 624.671875 330.363281 C 632.671875 320.527344 640.765625 327.941406 649.785156 323.394531 C 654.296875 328.5625 658.300781 316.476562 662.730469 322.710938 C 679.128906 326.683594 687.703125 323.773438 701.355469 328.0625 C 710.953125 339.074219 720.972656 326.914062 731.097656 338.933594 C 741.273438 345.320312 751.445312 363.394531 761.554688 348.578125 C 766.179688 345.378906 769.175781 343.148438 773.835938 354.039062 C 786.210938 357.285156 801.5 356.25 814.160156 356.148438 C 825.425781 360.085938 821.238281 364.535156 834.203125 360.464844 C 849.472656 358.496094 864.726562 379.511719 879.976562 360.464844 C 891.074219 366.214844 902.867188 355.84375 913.269531 361.101562 C 926.007812 352.402344 938.761719 367.1875 951.515625 360.695312 C 957.832031 361.976562 964.210938 362.605469 970.65625 362.585938 C 977.101562 362.566406 983.476562 361.894531 989.785156 360.578125 C 999.960938 365.652344 1007.703125 367.972656 1016.171875 356.386719 C 1020.03125 357.027344 1024.054688 346.152344 1028.410156 351.433594 C 1037.214844 350.628906 1049.738281 350.960938 1059.105469 349.945312 C 1073.300781 338.933594 1087.832031 326.351562 1101.890625 346.867188 C 1109.796875 357.265625 1108.28125 341.558594 1114.125 342.9375 C 1121.394531 331.84375 1126.457031 340.726562 1134.863281 336.796875 C 1145.960938 359.910156 1157.578125 328.414062 1168.816406 329.671875 C 1184.90625 333.082031 1201.972656 342.863281 1217.304688 332.039062 C 1232.363281 341.863281 1248.75 342.910156 1264.6875 341.773438 C 1272.429688 329.429688 1276.191406 344.378906 1283.695312 344.09375 C 1291.859375 342.957031 1298.789062 342.125 1307.804688 350.703125 C 1325.035156 354.824219 1337.464844 356.648438 1356.277344 360.558594 C 1370.972656 351.628906 1385.6875 360.695312 1400.386719 360.464844 C 1412.101562 368.109375 1424.21875 367.972656 1434.929688 365.863281 L 1434.929688 57.710938 L 1432.359375 58.441406 C 1424.625 55.457031 1410.632812 55.078125 1395.511719 58.441406 C 1390.730469 52.332031 1391.757812 62.417969 1378.335938 58.230469 C 1359.921875 58.0625 1361.105469 56.824219 1365.101562 64.980469 C 1368.0625 65.191406 1363.019531 68.601562 1358.996094 69.90625 C 1333.792969 64.027344 1329.585938 68.058594 1330.816406 70.453125 C 1338.058594 81.25 1316.167969 66.585938 1302.578125 70.453125 C 1286.652344 71.191406 1279.746094 69.175781 1268.691406 70.644531 C 1255.078125 66.375 1248.503906 69.027344 1238.707031 64.339844 C 1237.164062 68.464844 1235.292969 63.492188 1233.160156 58.703125 C 1229.847656 57.1875 1222.863281 58.277344 1219.40625 58.441406 C 1205.9375 67.039062 1201.140625 66.542969 1188.738281 69.480469 C 1177.730469 76.425781 1166.417969 71.875 1155.578125 71.332031 C 1145.304688 70 1140.292969 73.105469 1129.101562 75.027344 C 1119.851562 71.476562 1110.546875 80.898438 1101.261719 75.027344 C 1088.554688 83.960938 1072.230469 91.828125 1060.160156 74.621094 C 1054.167969 79.246094 1050.855469 70.738281 1044.355469 70.148438 C 1039.617188 68.34375 1033.625 65.035156 1028.75 70.3125 C 1020.492188 75.757812 1012.234375 79.457031 1003.972656 70.3125 C 991.191406 68.613281 978.300781 65.765625 965.546875 70.265625 C 953.753906 73.085938 944.476562 73.085938 933 75.074219 C 920.671875 70.933594 907.203125 79.078125 895.46875 72.679688 C 884.015625 71.359375 870.402344 79.152344 860.746094 68.058594 C 852.636719 59.597656 845.339844 61.464844 835.636719 56.640625 C 830.671875 49.457031 825.203125 52.441406 820.164062 53.820312 C 813.894531 45.785156 809.75 53.988281 803.101562 50.910156 C 794.980469 48.746094 783.457031 48.589844 775.058594 49.457031 C 773.28125 49.390625 770.5625 48.089844 766.890625 53.960938 C 763.0625 50.546875 759.222656 54.320312 755.386719 55.808594 C 745.953125 53.71875 736.886719 57.75 727.492188 56.085938 C 714.300781 53.035156 701.929688 65.015625 688.082031 58.507812 C 674.921875 60.496094 661.742188 59.164062 648.589844 58.507812 C 636.253906 59.027344 623.3125 65.136719 611.125 58.617188 C 602.132812 72.71875 594.679688 48.449219 586.085938 53.671875 C 570.226562 43.726562 551.320312 71.460938 535.914062 55.640625 C 525.644531 60.070312 515.566406 57.371094 505.578125 55.828125 C 495.542969 60.191406 485.570312 46.988281 475.425781 53.671875 C 467.59375 46.636719 459.378906 50.613281 451.546875 53.746094 C 443.027344 52.582031 423.214844 60.589844 421.136719 63.433594 C 425.277344 70.398438 437.226562 78.691406 439.070312 78.050781 C 423.261719 88.921875 405.632812 75.933594 390.105469 78.875 C 380.328125 83.726562 370.5625 86.269531 360.695312 85.152344 C 350.824219 80.222656 340.882812 82.832031 330.757812 89.320312 C 322.347656 73.992188 315.367188 100.007812 307.53125 85.300781 C 300.058594 94.765625 289.246094 75.296875 280.914062 81.695312 C 275.367188 82.996094 274.265625 73.308594 269.53125 85.390625 C 261.058594 95.144531 255.988281 95.765625 249.441406 84.394531 C 236.355469 88.921875 232.589844 99.25 221.160156 83.941406 C 212.835938 92.425781 208.941406 93.519531 200.996094 81.953125 C 189.09375 72.21875 177.964844 94.894531 170.132812 80.585938 C 153.707031 63.363281 144.355469 82 141.351562 70.109375 C 126.347656 66.652344 136.597656 68.742188 119.320312 69.878906 C 116.035156 62.390625 101.339844 64.378906 91.324219 65.0625 C 87.875 71.960938 74.140625 70.914062 65.484375 62.910156 C 59.65625 63.695312 40.585938 61.4375 39.070312 63.121094 C 16.871094 65.96875 21.792969 72.265625 18.859375 72.292969 C 16.167969 76.210938 14.015625 73.945312 5.105469 74.195312 Z M 5.070312 354.648438 " fill-opacity="1" fill-rule="nonzero"/></g></svg>