<svg xmlns="http://www.w3.org/2000/svg" xmlns:xlink="http://www.w3.org/1999/xlink" width="1920" zoomAndPan="magnify" viewBox="0 0 1440 141.000003" height="188" preserveAspectRatio="xMidYMid meet" version="1.0"><defs><clipPath id="a56a378d6c"><path d="M 5.070312 0 L 1434.496094 0 L 1434.496094 138 L 5.070312 138 Z M 5.070312 0 " clip-rule="nonzero"/></clipPath></defs><g clip-path="url(#a56a378d6c)"><path fill="#ffffff" d="M 1395.167969 -388.128906 C 1395.167969 -381.546875 1364.390625 -409.101562 1364.390625 -408.640625 C 1364.390625 -383.683594 1331.910156 -444.671875 1331.910156 -425.957031 C 1331.910156 -430.703125 1298.160156 -421.621094 1298.160156 -417.964844 C 1298.160156 -393.238281 1260.925781 -403.148438 1260.925781 -419.886719 C 1260.925781 -420.851562 1225.675781 -405.410156 1225.675781 -414.117188 C 1225.675781 -399.269531 1191.550781 -417.078125 1191.550781 -404.746094 C 1191.550781 -410.988281 1154.617188 -394.621094 1154.617188 -399.644531 C 1154.617188 -398.683594 1126.726562 -426.515625 1126.726562 -423.496094 C 1126.726562 -414 1091.714844 -427.527344 1091.714844 -418.117188 C 1091.714844 -415.097656 1062.507812 -420.5625 1062.507812 -427.449219 C 1062.507812 -416.617188 1030.996094 -431.53125 1030.996094 -426.488281 C 1030.996094 -418.703125 1000.679688 -423.96875 1000.679688 -414.277344 C 1000.679688 -412.355469 962.980469 -442.765625 962.980469 -431.691406 C 962.980469 -431.164062 927.007812 -411.941406 927.007812 -410.746094 C 927.007812 -396.394531 890.949219 -417.136719 890.949219 -418.648438 C 890.949219 -415.230469 857.699219 -445.808594 857.699219 -439.753906 C 857.699219 -455.070312 821.429688 -442.371094 821.429688 -440.3125 C 821.429688 -436.945312 784.535156 -445.757812 784.535156 -440.601562 C 784.535156 -422.320312 747.753906 -451.359375 747.753906 -442.613281 C 747.753906 -445.644531 711.839844 -445.703125 711.839844 -447.960938 C 711.839844 -458.410156 681.332031 -483.703125 681.332031 -474.824219 C 681.332031 -470.589844 644.667969 -479.847656 644.667969 -476.824219 C 644.667969 -489.054688 609.503906 -488.015625 609.503906 -485.300781 C 609.503906 -486.484375 574.640625 -482.464844 574.640625 -498.695312 C 574.640625 -501.425781 537.90625 -498.078125 537.90625 -500.222656 C 537.90625 -498.714844 501.714844 -478.363281 501.714844 -485.984375 C 501.714844 -483.753906 466.953125 -473.410156 466.953125 -478.921875 C 466.953125 -482.125 429.089844 -495.125 429.089844 -485.457031 C 429.089844 -483.578125 397.011719 -447.710938 397.011719 -459.054688 C 397.011719 -466.703125 354.867188 -464.125 354.867188 -462.460938 C 354.867188 -461.316406 322.355469 -428.5 322.355469 -432.875 C 322.355469 -433.597656 281.164062 -453.320312 281.164062 -447.308594 C 281.164062 -451.589844 247.355469 -422.1875 247.355469 -434.703125 C 247.355469 -419.425781 220.472656 -468.957031 220.472656 -460.824219 C 220.472656 -476.277344 184.367188 -449.453125 184.367188 -450.242188 C 184.367188 -454.457031 156.195312 -469.761719 156.195312 -467.695312 C 156.195312 -451.734375 123.292969 -461.664062 123.292969 -475.160156 C 123.292969 -470.496094 89.53125 -488.292969 89.53125 -488.859375 C 89.53125 -491.035156 56.492188 -476.179688 56.492188 -461.46875 C 56.492188 -447.933594 22.742188 -465.425781 22.742188 -464.046875 C 22.742188 -451.722656 0.332031 -470.871094 -8.035156 -469.03125 L -8.035156 40.382812 C 1.085938 43.210938 16.414062 45.195312 16.414062 53.988281 C 16.414062 37.132812 48.867188 68.21875 48.867188 53.707031 C 48.867188 52.390625 81.136719 69.101562 81.136719 56.171875 C 81.136719 42.105469 112.730469 27.90625 112.730469 29.984375 C 112.730469 30.523438 145.019531 47.542969 145.019531 43.078125 C 145.019531 55.988281 176.488281 65.484375 176.488281 50.226562 C 176.488281 48.242188 203.417969 62.886719 203.417969 66.910156 C 203.417969 67.71875 237.957031 42.058594 237.957031 56.835938 C 237.957031 49.0625 263.65625 96.425781 263.65625 81.851562 C 263.65625 93.820312 295.992188 65.695312 295.992188 69.796875 C 295.992188 64.023438 335.378906 82.890625 335.378906 83.582031 C 335.378906 87.765625 366.476562 56.382812 366.476562 55.285156 C 366.476562 53.699219 406.773438 51.226562 406.773438 58.546875 C 406.773438 69.402344 437.445312 35.101562 437.445312 33.300781 C 437.445312 24.058594 473.660156 36.488281 473.660156 39.554688 C 473.660156 44.820312 506.898438 34.929688 506.898438 32.820312 C 506.898438 40.105469 541.523438 20.640625 541.523438 19.199219 C 541.523438 21.257812 576.648438 18.054688 576.648438 20.660156 C 576.648438 36.1875 609.984375 32.339844 609.984375 33.464844 C 609.984375 30.878906 643.648438 29.878906 643.648438 41.578125 C 643.648438 38.691406 678.707031 47.53125 678.707031 43.5 C 678.707031 35.015625 707.886719 59.203125 707.886719 69.1875 C 707.886719 71.363281 742.234375 71.410156 742.234375 74.316406 C 742.234375 65.945312 777.398438 93.722656 777.398438 76.242188 C 777.398438 71.316406 812.675781 79.734375 812.675781 76.519531 C 812.675781 74.546875 847.371094 62.40625 847.371094 77.058594 C 847.371094 71.285156 879.167969 100.503906 879.167969 97.261719 C 879.167969 98.714844 913.648438 118.546875 913.648438 104.824219 C 913.648438 103.679688 948.050781 85.292969 948.050781 84.792969 C 948.050781 74.210938 984.101562 103.316406 984.101562 101.449219 C 984.101562 92.175781 1013.089844 97.214844 1013.089844 89.769531 C 1013.089844 84.957031 1043.222656 99.214844 1043.222656 88.804688 C 1043.222656 95.398438 1071.113281 100.621094 1071.113281 97.734375 C 1071.113281 88.730469 1104.585938 101.667969 1104.585938 92.597656 C 1104.585938 89.710938 1131.207031 116.332031 1131.207031 115.398438 C 1131.207031 120.210938 1166.535156 104.554688 1166.535156 110.53125 C 1166.535156 98.726562 1199.167969 115.753906 1199.167969 101.5625 C 1199.167969 109.933594 1232.882812 95.15625 1232.882812 96.070312 C 1232.882812 112.097656 1268.46875 121.574219 1268.46875 97.925781 C 1268.46875 94.425781 1300.746094 85.746094 1300.746094 90.230469 C 1300.746094 72.382812 1331.8125 130.707031 1331.8125 106.847656 C 1331.8125 106.402344 1361.253906 132.753906 1361.253906 126.464844 C 1361.253906 133.0625 1404.476562 123.914062 1404.476562 123.980469 C 1404.476562 137.277344 1429.886719 138.21875 1434.476562 136.316406 L 1434.476562 -389.589844 C 1422.28125 -387.3125 1395.167969 -382.78125 1395.167969 -388.128906 Z M 1395.167969 -388.128906 " fill-opacity="1" fill-rule="nonzero"/></g></svg>