<svg xmlns="http://www.w3.org/2000/svg" xmlns:xlink="http://www.w3.org/1999/xlink" width="1920" zoomAndPan="magnify" viewBox="0 0 1440 141.000003" height="188" preserveAspectRatio="xMidYMid meet" version="1.0"><defs><clipPath id="eeaf092256"><path d="M 5.070312 0 L 1434.929688 0 L 1434.929688 132 L 5.070312 132 Z M 5.070312 0 " clip-rule="nonzero"/></clipPath></defs><g clip-path="url(#eeaf092256)"><path fill="#ffffff" d="M 1421.066406 -359.769531 C 1421.066406 -343.589844 1382.765625 -311.761719 1382.765625 -330.066406 C 1382.765625 -308.917969 1339.378906 -327.480469 1339.378906 -318.085938 C 1339.378906 -289.25 1295.277344 -322.816406 1295.277344 -330.71875 C 1295.277344 -320.144531 1252.207031 -339.957031 1252.207031 -345.492188 C 1252.207031 -365.246094 1217.929688 -374.226562 1217.929688 -361.296875 C 1217.929688 -362.691406 1179.207031 -350 1179.207031 -354.664062 C 1179.207031 -359.125 1143.140625 -381.972656 1143.140625 -364.171875 C 1143.140625 -363.980469 1104.53125 -360.269531 1104.53125 -375.371094 C 1104.53125 -335.824219 1069.761719 -357.84375 1069.761719 -355.394531 C 1069.761719 -352.941406 1038.238281 -343.148438 1038.238281 -334.582031 C 1038.238281 -304.878906 985.527344 -314.828125 985.527344 -324.007812 C 985.527344 -315.925781 944.160156 -350.320312 944.160156 -349.125 C 944.160156 -361.625 901.222656 -358.441406 901.222656 -362.21875 C 901.222656 -358.75 854.917969 -379.523438 854.917969 -358.566406 C 854.917969 -348.820312 812.378906 -342.136719 812.378906 -342.9375 C 812.378906 -323.855469 777.433594 -336.976562 777.433594 -321.453125 C 777.433594 -323.96875 732.449219 -307.867188 732.449219 -310.820312 C 732.449219 -288.710938 694.046875 -323.566406 694.046875 -304.550781 C 694.046875 -300.464844 655.878906 -348.433594 655.878906 -324.25 C 655.878906 -324.066406 617.332031 -291.738281 617.332031 -308.867188 C 617.332031 -312.183594 578.847656 -311.386719 578.847656 -303.03125 C 578.847656 -296.917969 540.414062 -311.328125 540.414062 -301.503906 C 540.414062 -314.105469 502.414062 -317.375 502.414062 -317.761719 C 502.414062 -333.476562 464.046875 -337.246094 464.046875 -317.664062 C 464.046875 -334.96875 420.398438 -346.261719 420.398438 -329.507812 C 420.398438 -314.578125 382.667969 -363.910156 382.667969 -343.128906 C 382.667969 -360.980469 339.578125 -370.554688 339.578125 -359.46875 C 339.578125 -327.324219 291.726562 -393.117188 291.726562 -385.925781 C 291.726562 -393.328125 253.011719 -329.421875 253.011719 -351.078125 C 253.011719 -339.351562 211.828125 -323 211.828125 -338.484375 C 211.828125 -331.917969 174.511719 -297.996094 174.511719 -306.484375 C 174.511719 -305.234375 128.332031 -287.480469 128.332031 -302.417969 C 128.332031 -321.941406 87.597656 -349.308594 87.597656 -331.421875 C 87.597656 -309.308594 40.785156 -334.140625 40.785156 -328.929688 C 40.816406 -335.523438 6.402344 -342.089844 6.402344 -357.085938 C 6.402344 -358.75 2.996094 -354.914062 -1.476562 -349.722656 L -1.476562 87.738281 C 7.757812 81.164062 41.238281 68.320312 41.238281 80.769531 C 41.238281 88.199219 95.160156 82.941406 95.160156 83.652344 C 95.160156 106.847656 141.339844 53.71875 141.339844 51.410156 C 141.339844 52.804688 174.808594 65.148438 174.808594 78.605469 C 174.808594 91.804688 211.269531 71.550781 211.269531 66.332031 C 211.269531 70.175781 215.714844 19.140625 215.714844 22.898438 C 215.714844 46.652344 256.542969 -18.703125 256.542969 5.085938 C 256.542969 16.027344 297.652344 27.3125 297.652344 9.125 C 297.652344 0.828125 328.863281 26.179688 328.863281 31.53125 C 328.863281 12.671875 358.242188 54.554688 358.242188 52.921875 C 358.242188 57.34375 396.636719 36.945312 396.636719 46.402344 C 396.636719 35.117188 431.847656 43.992188 431.847656 60.753906 C 431.847656 55.574219 468.40625 51.796875 468.40625 45.242188 C 468.40625 55.902344 505.925781 69.082031 505.925781 69.070312 C 505.925781 73.878906 542.867188 59.804688 542.867188 62.917969 C 542.867188 67.726562 583.148438 57.152344 583.148438 55.632812 C 583.148438 62.773438 621.554688 64.121094 621.554688 62.417969 C 621.554688 42.40625 657.851562 93.757812 657.851562 74.339844 C 657.851562 74.039062 684.789062 113.214844 684.789062 115.261719 C 684.789062 132.179688 725.609375 128.507812 725.609375 110.453125 C 725.609375 113.722656 763.640625 105.992188 763.640625 108.53125 C 763.640625 112.519531 799.890625 88.34375 799.890625 106.878906 C 799.890625 106.011719 852.800781 123.527344 852.800781 120.96875 C 852.800781 132.3125 900.558594 112.617188 900.558594 114.367188 C 900.558594 108.773438 946.832031 81.789062 946.832031 82.757812 C 946.832031 87.625 994.117188 87.394531 994.117188 88.796875 C 994.117188 92.640625 1035.976562 96.59375 1035.976562 95.398438 C 1035.976562 99.9375 1074.976562 81.566406 1074.976562 86.75 C 1074.976562 83.863281 1111.765625 73.742188 1111.765625 73.695312 C 1111.765625 69.9375 1150.96875 88.929688 1150.96875 63.121094 C 1150.96875 66.3125 1190.960938 79.730469 1190.960938 70.167969 C 1190.960938 76.40625 1232.261719 81.367188 1232.261719 68.425781 C 1232.261719 71.175781 1272.667969 83.382812 1272.667969 76.289062 C 1272.667969 75.570312 1303.300781 116.875 1303.300781 110.222656 C 1303.300781 116.53125 1351.402344 108.53125 1351.402344 97.878906 C 1351.402344 97.476562 1385.699219 126.621094 1385.699219 119.683594 C 1385.699219 126.152344 1435.449219 128.632812 1435.449219 131.785156 C 1435.449219 118.011719 1440.257812 72.925781 1440.257812 92.84375 C 1440.257812 95.507812 1440.882812 94.054688 1441.835938 90.460938 L 1441.835938 -375.648438 C 1431.378906 -375.535156 1421.066406 -371.785156 1421.066406 -359.769531 Z M 1421.066406 -359.769531 " fill-opacity="1" fill-rule="nonzero"/></g></svg>